#!OML:ASF H:\Terrain\Patient Classification 1\PLAYGROUND\JustinFriday\JustinFriday.ASF
:FULLY-SPECIFIED
:DEGREES
366
root 14.4007 18.4691 13.0318 171.557 -19.6299 -175.354
lowerback 12.5922 1.45098 2.7426
upperback -5.98612 2.3378 -0.313148
thorax -13.6099 0.788544 -2.4467
lowerneck -3.52696 -7.21549 -9.54303
upperneck 6.50186 -9.78003 8.00495
head 3.37119 -4.85727 3.5082
rclavicle 4.01545e-014 -6.36111e-015
rhumerus 109.415 1.81575 -108.599
rradius 34.3771
rwrist 34.1241
rhand 78.4897 -11.3938
rfingers 7.12502
rthumb 68.8573 77.6747
lclavicle 4.01545e-014 -6.36111e-015
lhumerus 102.277 10.1789 58.8888
lradius 38.489
lwrist 9.63324
lhand -25.8184 -1.68828
lfingers 7.12502
lthumb 0.721099 28.2902
rfemur -6.75491 -8.45383 23.7545
rtibia 41.3774
rfoot 1.52102 -13.1407
rtoes 5.14418
lfemur 3.35536 -1.87818 -9.33319
ltibia 43.3157
lfoot 12.2714 2.24676
ltoes -25.305
367
root 14.395 18.459 13.0312 171.57 -19.3827 -175.314
lowerback 12.6588 1.5042 2.73995
upperback -5.9072 2.42434 -0.234117
thorax -13.5571 0.837775 -2.37912
lowerneck -3.52474 -7.17853 -9.61525
upperneck 6.58494 -9.73661 8.05188
head 3.39773 -4.83662 3.5353
rclavicle 1.37161e-014 -1.03368e-014
rhumerus 109.793 1.97856 -108.449
rradius 34.1767
rwrist 34.022
rhand 78.2027 -11.1853
rfingers 7.12502
rthumb 69.056 77.3447
lclavicle 1.37161e-014 -1.03368e-014
lhumerus 102.588 10.2765 59.3537
lradius 38.5421
lwrist 9.1947
lhand -25.6325 -1.69149
lfingers 7.12502
lthumb 0.900692 28.2864
rfemur -6.85096 -8.52932 23.8159
rtibia 41.5179
rfoot 1.49199 -12.9726
rtoes 5.08725
lfemur 3.42108 -1.95657 -9.28447
ltibia 43.2774
lfoot 12.1162 2.3307
ltoes -24.7015
368
root 14.3899 18.4589 13.0277 171.686 -19.1771 -175.134
lowerback 12.6144 1.54573 2.86015
upperback -5.91574 2.50996 -0.154614
thorax -13.5338 0.871688 -2.37716
lowerneck -3.73594 -7.13725 -9.36261
upperneck 6.95318 -9.67948 7.77565
head 3.51219 -4.8083 3.40276
rclavicle 6.95746e-014 6.36111e-015
rhumerus 110.18 2.14667 -108.405
rradius 33.8904
rwrist 34.0302
rhand 77.8839 -10.9666
rfingers 7.12502
rthumb 69.2742 76.9531
lclavicle 6.95746e-014 6.36111e-015
lhumerus 102.922 10.2487 59.7461
lradius 38.3479
lwrist 8.20673
lhand -25.9649 -1.89357
lfingers 7.12502
lthumb 0.579603 28.0854
rfemur -7.05161 -8.66347 24.0184
rtibia 41.5658
rfoot 0.820265 -13.0113
rtoes 8.00097
lfemur 3.2975 -1.9108 -9.04211
ltibia 43.2844
lfoot 12.1522 2.04502
ltoes -24.6274
369
root 14.386 18.4621 13.0281 171.855 -19.0866 -174.819
lowerback 12.5338 1.52769 3.14074
upperback -6.03223 2.53519 -0.10749
thorax -13.6106 0.854598 -2.48757
lowerneck -3.60827 -7.08968 -8.94015
upperneck 7.0975 -9.64238 7.47863
head 3.49624 -4.79525 3.25231
rclavicle -8.20981e-014 -3.10104e-014
rhumerus 110.49 2.29882 -108.529
rradius 33.5718
rwrist 34.1384
rhand 77.596 -10.7447
rfingers 7.12502
rthumb 69.4693 76.6124
lclavicle -8.20981e-014 -3.10104e-014
lhumerus 103.126 10.218 59.8307
lradius 38.1235
lwrist 7.57033
lhand -26.2275 -1.98732
lfingers 7.12502
lthumb 0.326004 27.9922
rfemur -7.33036 -8.86485 24.3793
rtibia 41.5958
rfoot 0.516706 -12.9817
rtoes 8.96608
lfemur 3.02856 -2.0391 -8.67407
ltibia 43.317
lfoot 12.0921 2.00712
ltoes -23.5853
370
root 14.3821 18.4562 13.0304 172.044 -18.8673 -174.704
lowerback 12.4508 1.54595 3.26784
upperback -6.08159 2.57433 -0.133479
thorax -13.6084 0.858005 -2.59453
lowerneck -3.35535 -7.04677 -8.67267
upperneck 6.91582 -9.61258 7.45052
head 3.38309 -4.78177 3.2165
rclavicle -5.20816e-014 -3.97569e-015
rhumerus 110.782 2.30611 -108.52
rradius 33.3891
rwrist 33.9641
rhand 77.3036 -10.5857
rfingers 7.12502
rthumb 69.6652 76.1886
lclavicle -5.20816e-014 -3.97569e-015
lhumerus 103.428 10.1945 59.972
lradius 37.9919
lwrist 7.21867
lhand -26.117 -1.98906
lfingers 7.12502
lthumb 0.432787 27.9902
rfemur -7.57464 -8.88119 24.5875
rtibia 41.6728
rfoot 0.793101 -12.8025
rtoes 7.3423
lfemur 2.88183 -1.9918 -8.47218
ltibia 43.329
lfoot 11.7816 2.12297
ltoes -22.0734
371
root 14.3834 18.4486 13.0387 172.111 -18.7176 -174.973
lowerback 12.6321 1.57512 2.9944
upperback -5.98473 2.56032 -0.260454
thorax -13.6123 0.872777 -2.58413
lowerneck -3.37045 -6.99017 -8.54395
upperneck 6.90865 -9.56853 7.66996
head 3.38408 -4.75187 3.26506
rclavicle 2.36554e-014 -2.14687e-014
rhumerus 111.22 2.20466 -108.365
rradius 33.2465
rwrist 33.5944
rhand 76.9978 -10.4719
rfingers 7.12502
rthumb 69.8677 75.6807
lclavicle 2.36554e-014 -2.14687e-014
lhumerus 103.755 10.3237 59.7707
lradius 37.7115
lwrist 6.07985
lhand -27.0761 -2.25799
lfingers 7.12502
lthumb -0.49363 27.7212
rfemur -7.62875 -8.90087 24.3273
rtibia 41.8174
rfoot 0.794267 -12.6124
rtoes 6.91124
lfemur 2.96783 -2.01657 -8.7093
ltibia 43.3158
lfoot 11.4806 2.34362
ltoes -19.9875
372
root 14.3839 18.4459 13.0479 172.29 -18.4524 -175.299
lowerback 12.7268 1.68954 2.61435
upperback -5.95909 2.63253 -0.400897
thorax -13.6444 0.93306 -2.54675
lowerneck -3.33085 -6.92464 -8.36868
upperneck 7.12374 -9.55031 7.95135
head 3.44547 -4.73654 3.32206
rclavicle 4.31363e-014 1.82882e-014
rhumerus 111.74 2.12267 -108.319
rradius 32.9108
rwrist 33.4033
rhand 76.6483 -10.3123
rfingers 7.12502
rthumb 70.096 75.1141
lclavicle 4.31363e-014 1.82882e-014
lhumerus 104.113 10.3964 59.611
lradius 37.5936
lwrist 5.81237
lhand -27.2753 -2.31573
lfingers 7.12502
lthumb -0.685969 27.6629
rfemur -7.86271 -8.9212 23.9952
rtibia 42.0275
rfoot 0.845632 -12.36
rtoes 6.18438
lfemur 3.03373 -2.04297 -8.99165
ltibia 43.2807
lfoot 11.0838 2.7327
ltoes -16.8873
373
root 14.3828 18.4413 13.0604 172.337 -18.2977 -175.266
lowerback 12.9184 1.71692 2.60187
upperback -5.94564 2.67041 -0.441301
thorax -13.7435 0.947669 -2.60203
lowerneck -3.51187 -6.908 -8.1519
upperneck 7.56936 -9.58071 8.02357
head 3.60466 -4.74423 3.29484
rclavicle 1.92821e-014 -3.97569e-015
rhumerus 112.123 1.99801 -108.196
rradius 32.7762
rwrist 33.1347
rhand 76.4179 -10.1737
rfingers 7.12502
rthumb 70.2447 74.7645
lclavicle 1.92821e-014 -3.97569e-015
lhumerus 104.519 10.4705 59.6003
lradius 37.5134
lwrist 5.99436
lhand -26.9504 -2.25671
lfingers 7.12502
lthumb -0.372155 27.7227
rfemur -8.08413 -8.98651 24.0457
rtibia 42.2521
rfoot 0.918108 -12.3361
rtoes 5.14649
lfemur 3.05136 -2.04866 -8.86932
ltibia 43.2604
lfoot 10.8738 3.13542
ltoes -18.791
374
root 14.3835 18.4305 13.075 172.262 -18.3326 -175.138
lowerback 13.2401 1.64938 2.72781
upperback -5.88375 2.61687 -0.450057
thorax -13.8679 0.909801 -2.68298
lowerneck -3.67321 -6.90156 -7.97036
upperneck 7.87862 -9.59962 7.99273
head 3.71569 -4.74826 3.24546
rclavicle -7.39479e-014 4.77083e-015
rhumerus 112.399 1.92066 -108.059
rradius 32.8555
rwrist 32.8703
rhand 76.3069 -10.0305
rfingers 7.12502
rthumb 70.3158 74.6698
lclavicle -7.39479e-014 4.77083e-015
lhumerus 104.931 10.6305 59.6027
lradius 37.4925
lwrist 6.60854
lhand -26.2819 -2.05931
lfingers 7.12502
lthumb 0.273478 27.9203
rfemur -8.18128 -9.14421 24.1836
rtibia 42.4589
rfoot 0.659897 -12.5023
rtoes 5.89005
lfemur 2.92928 -1.64791 -8.55078
ltibia 43.2593
lfoot 10.9276 1.44846
ltoes -22.2624
375
root 14.384 18.4132 13.0911 172.241 -18.2368 -175.099
lowerback 13.527 1.64318 2.76136
upperback -5.85362 2.6276 -0.450573
thorax -14.0083 0.909161 -2.71744
lowerneck -3.54491 -6.84942 -7.851
upperneck 7.85816 -9.55509 8.03916
head 3.68103 -4.72666 3.24872
rclavicle -2.18663e-014 1.59028e-014
rhumerus 112.638 1.89317 -107.939
rradius 32.8807
rwrist 32.6787
rhand 76.1667 -9.86266
rfingers 7.12502
rthumb 70.405 74.5348
lclavicle -2.18663e-014 1.59028e-014
lhumerus 105.241 10.7559 59.6684
lradius 37.5109
lwrist 7.32844
lhand -25.4676 -1.76146
lfingers 7.12502
lthumb 1.05998 28.2157
rfemur -8.3441 -9.24439 24.2557
rtibia 42.661
rfoot 0.621603 -12.5242
rtoes 5.70412
lfemur 2.77436 -1.0269 -8.30042
ltibia 43.2542
lfoot 10.8987 -0.543008
ltoes -26.3931
376
root 14.3776 18.3987 13.1073 172.36 -17.9141 -175.185
lowerback 13.638 1.72484 2.71755
upperback -5.84047 2.73426 -0.451743
thorax -14.0565 0.96191 -2.72538
lowerneck -3.59313 -6.81169 -7.79338
upperneck 7.93826 -9.50838 8.00713
head 3.70503 -4.70218 3.23015
rclavicle 1.13307e-014 4.77083e-015
rhumerus 112.933 1.87401 -107.755
rradius 32.7554
rwrist 32.4256
rhand 75.9132 -9.67665
rfingers 7.12502
rthumb 70.565 74.1658
lclavicle 1.13307e-014 4.77083e-015
lhumerus 105.492 10.8842 59.802
lradius 37.5303
lwrist 7.809
lhand -24.791 -1.43139
lfingers 7.12502
lthumb 1.71341 28.5415
rfemur -8.62278 -9.26289 24.1783
rtibia 42.8648
rfoot 0.928596 -12.2163
rtoes 3.69113
lfemur 2.74012 -0.706055 -8.31533
ltibia 43.2148
lfoot 10.7658 -1.08507
ltoes -27.6826
377
root 14.3697 18.3996 13.1305 172.731 -17.9075 -175.566
lowerback 13.6767 1.74362 2.44782
upperback -5.88606 2.69538 -0.536448
thorax -14.1439 0.959729 -2.66119
lowerneck -3.59764 -6.7992 -7.88227
upperneck 8.01049 -9.4919 8.01857
head 3.73094 -4.69578 3.24744
rclavicle -4.96962e-014 -2.22639e-014
rhumerus 113.377 1.94669 -107.608
rradius 32.3208
rwrist 32.2604
rhand 75.4429 -9.42293
rfingers 7.12502
rthumb 70.8565 73.3653
lclavicle -4.96962e-014 -2.22639e-014
lhumerus 105.753 11.0733 59.8592
lradius 37.4514
lwrist 7.97572
lhand -24.5289 -1.295
lfingers 7.12502
lthumb 1.9666 28.6757
rfemur -9.06346 -9.40102 23.765
rtibia 43.0484
rfoot 1.07917 -12.0114
rtoes 2.57516
lfemur 2.48892 -0.905801 -8.81765
ltibia 43.1588
lfoot 10.5902 -0.781318
ltoes -27.0987
378
root 14.3633 18.4015 13.1574 173.002 -17.747 -175.695
lowerback 13.7546 1.79135 2.3745
upperback -5.92221 2.74257 -0.570571
thorax -14.2336 0.98286 -2.67453
lowerneck -3.47645 -6.79152 -8.00263
upperneck 8.01593 -9.50397 8.18154
head 3.72682 -4.70395 3.31923
rclavicle 2.00773e-014 1.66979e-014
rhumerus 113.791 1.95669 -107.472
rradius 31.9608
rwrist 32.0651
rhand 74.9764 -9.18366
rfingers 7.12502
rthumb 71.1389 72.5261
lclavicle 2.00773e-014 1.66979e-014
lhumerus 106.041 11.2362 59.8305
lradius 37.2144
lwrist 7.6306
lhand -24.7626 -1.42457
lfingers 7.12502
lthumb 1.74083 28.5481
rfemur -9.45652 -9.39254 23.6729
rtibia 43.1974
rfoot 1.0585 -11.937
rtoes 2.26137
lfemur 2.28821 -0.917923 -8.96226
ltibia 43.1004
lfoot 10.3874 -0.538257
ltoes -26.203
